<?xml version="1.0" standalone="no"?>
<!DOCTYPE svg PUBLIC "-//W3C//DTD SVG 20010904//EN"
 "http://www.w3.org/TR/2001/REC-SVG-20010904/DTD/svg10.dtd">
<svg version="1.0" xmlns="http://www.w3.org/2000/svg"
 width="350.000000pt" height="350.000000pt" viewBox="0 0 350.000000 350.000000"
 preserveAspectRatio="xMidYMid meet">
<metadata>
Created by potrace 1.14, written by Peter Selinger 2001-2017
</metadata>
<g transform="translate(0.000000,350.000000) scale(0.100000,-0.100000)"
fill="#000000" stroke="none">
<path d="M1145 3340 c-3 -5 -4 -10 -1 -10 4 0 -16 -35 -42 -77 -27 -43 -54
-89 -61 -102 -15 -27 -14 -26 57 21 23 16 42 27 42 25 0 -3 -12 -31 -26 -63
-14 -33 -35 -81 -45 -109 l-19 -50 21 28 c21 28 77 63 86 54 2 -3 -1 -15 -7
-27 -18 -33 -5 -36 53 -11 28 12 58 25 66 28 9 4 8 -2 -5 -22 -18 -27 -18 -27
1 -22 94 28 137 38 141 34 3 -2 -22 -28 -56 -57 -33 -28 -60 -56 -60 -62 0 -5
14 2 31 16 17 14 34 26 37 26 4 1 52 7 107 14 55 8 101 13 103 11 1 -1 -27
-21 -63 -44 -37 -22 -64 -45 -61 -49 9 -15 -37 -30 -104 -35 -87 -6 -116 -23
-186 -107 -48 -58 -63 -69 -82 -65 -31 8 -69 -15 -129 -77 -62 -64 -103 -124
-103 -150 0 -14 -5 -18 -16 -14 -9 3 -40 6 -69 6 -49 0 -53 2 -59 26 -15 58
-188 211 -226 199 -14 -4 -20 -2 -20 9 0 8 -29 45 -65 82 -58 60 -83 96 -55
79 6 -3 19 -4 29 0 19 6 19 9 5 53 -21 72 -17 78 25 32 35 -38 39 -40 44 -21
3 11 -1 25 -9 32 -11 9 -14 8 -14 -2 0 -7 -18 5 -41 26 l-40 40 6 -30 c4 -16
11 -47 17 -69 11 -46 0 -63 -31 -47 -26 14 -29 -3 -6 -33 18 -24 19 -37 3 -31
-43 15 -204 23 -258 13 l-61 -10 37 -67 c74 -136 149 -211 209 -211 24 0 26
-2 14 -17 -13 -15 -11 -15 18 1 35 17 173 47 186 39 4 -2 7 -13 7 -23 0 -29
38 -65 104 -99 l60 -30 32 19 c46 29 110 35 164 15 71 -26 88 -28 123 -15 52
21 138 91 155 127 11 24 20 32 31 27 9 -4 54 -9 101 -11 47 -2 98 -9 114 -15
25 -10 26 -13 13 -23 -14 -10 -4 -17 59 -45 48 -21 78 -29 82 -23 4 6 27 20
51 33 50 25 42 40 -21 40 -42 0 -47 6 -20 26 16 13 16 13 -1 14 -10 0 -26 -7
-34 -16 -14 -13 -14 -17 -2 -25 8 -5 22 -9 31 -9 45 0 49 -13 9 -31 -40 -17
-41 -17 -88 6 -26 13 -40 24 -30 24 28 1 20 16 -19 34 l-35 17 46 36 c39 30
52 34 78 28 l32 -7 -23 -15 c-18 -12 -31 -42 -18 -42 5 0 76 71 76 76 0 2 -12
4 -27 4 -16 0 -35 5 -43 10 -12 8 -11 13 11 37 45 48 100 136 91 145 -5 5 -39
11 -77 15 -67 6 -68 7 -47 24 12 9 22 21 22 26 0 4 27 25 60 47 33 21 60 42
60 48 0 9 -82 3 -170 -12 -25 -5 -47 -6 -50 -3 -3 2 10 17 28 31 18 15 32 30
32 35 0 10 -43 9 -72 -2 -13 -4 -36 -11 -51 -15 -26 -6 -27 -5 -17 15 7 11 10
22 8 24 -2 2 -33 -10 -71 -25 -37 -16 -67 -28 -67 -27 0 1 4 17 9 35 5 17 7
32 5 32 -3 0 -23 -9 -45 -21 l-41 -20 7 23 c4 13 18 45 31 72 38 80 32 93 -26
51 -18 -14 -35 -23 -38 -21 -2 2 19 40 47 83 28 43 51 84 51 91 0 15 -7 16
-15 2z m410 -512 c10 -9 -65 -112 -127 -175 -28 -29 -70 -62 -94 -73 -39 -19
-49 -20 -120 -10 -43 5 -83 15 -89 20 -15 12 -25 3 -25 -24 0 -12 -8 -31 -18
-43 -28 -35 -94 -83 -105 -76 -5 3 -7 1 -4 -4 15 -25 -77 -32 -109 -9 -25 19
-16 26 59 53 34 12 55 22 47 22 -25 2 -21 92 5 113 28 23 35 14 35 -45 1 -41
3 -48 11 -34 6 10 9 41 7 70 l-3 52 40 -2 c35 -2 43 1 63 30 33 47 90 109 121
130 23 16 44 18 163 15 75 -2 140 -6 143 -10z m-1286 -38 c41 -6 85 -17 98
-25 20 -13 73 -87 87 -120 2 -5 10 -2 18 9 14 18 15 17 36 -9 16 -20 22 -42
22 -75 0 -30 6 -52 15 -60 9 -8 15 -9 15 -2 0 6 -4 14 -10 17 -5 3 -10 29 -10
58 l0 51 22 -21 c11 -12 23 -35 24 -51 6 -54 22 -81 51 -88 63 -13 68 -23 28
-50 -23 -15 -27 -14 -77 9 -73 35 -94 57 -108 107 -6 24 -15 39 -18 33 -4 -6
-55 -17 -114 -25 -84 -12 -113 -12 -135 -3 -38 16 -109 97 -156 176 -37 64
-37 64 -15 71 35 9 144 9 227 -2z m648 -252 c-3 -8 -6 -5 -6 6 -1 11 2 17 5
13 3 -3 4 -12 1 -19z m-277 -4 c0 -8 -4 -12 -10 -9 -5 3 -10 10 -10 16 0 5 5
9 10 9 6 0 10 -7 10 -16z"/>
<path d="M1274 2800 c-34 -11 -148 -125 -159 -160 -12 -38 11 -50 97 -50 101
0 124 12 187 98 27 37 57 75 66 85 9 10 14 21 11 25 -11 10 -170 12 -202 2z
m155 -38 c-12 -34 -83 -123 -113 -139 -27 -16 -186 -17 -186 -2 0 29 103 142
145 159 11 5 52 9 92 9 l72 1 -10 -28z"/>
<path d="M97 2761 l-27 -6 34 -50 c18 -27 45 -61 60 -74 14 -13 23 -29 19 -35
-3 -6 -3 -8 2 -4 4 4 20 1 36 -7 34 -18 77 -19 169 -3 64 11 69 14 64 33 -3
11 -19 34 -35 51 -16 17 -26 34 -22 39 5 4 3 6 -2 2 -6 -3 -30 8 -54 24 -35
23 -56 29 -103 31 -32 1 -70 2 -85 3 -16 1 -40 -1 -56 -4z m193 -28 c24 -4 53
-24 93 -62 l58 -55 -53 -13 c-71 -16 -133 -16 -166 1 -50 26 -120 116 -107
137 7 11 86 7 175 -8z"/>
<path d="M961 3295 c-38 -34 -100 -111 -136 -167 -28 -45 -11 -32 26 20 37 51
128 155 141 160 4 2 -4 -22 -17 -52 -14 -31 -20 -56 -15 -56 6 0 10 4 10 9 0
5 33 31 73 57 39 26 77 52 82 57 10 11 -75 -36 -110 -60 -32 -22 -36 -15 -15
27 25 49 12 51 -39 5z"/>
<path d="M723 3248 c-16 -18 -43 -50 -58 -71 -27 -36 -29 -38 -37 -18 -4 12
-10 21 -12 21 -3 0 -15 -34 -27 -75 -12 -41 -26 -72 -30 -69 -11 6 -10 -4 0
-31 7 -17 10 -13 20 25 7 25 17 62 24 84 l11 38 12 -38 c9 -29 12 -33 13 -16
1 23 27 64 83 130 33 38 33 36 12 -43 -8 -33 -13 -67 -11 -76 2 -9 -1 -26 -8
-39 l-13 -23 -6 21 c-18 55 -36 -3 -36 -116 0 -59 -1 -63 -20 -57 -16 5 -20 2
-20 -15 0 -17 -3 -19 -19 -10 -11 5 -27 10 -35 10 -13 0 -14 -4 -4 -27 14 -32
79 -133 85 -133 5 0 -54 107 -71 129 -9 12 -7 13 9 9 11 -3 29 -9 39 -14 16
-6 18 -4 14 14 -7 26 -1 28 22 7 16 -14 17 -14 13 10 -3 14 -2 60 2 102 6 61
9 73 18 58 9 -16 13 -12 34 34 26 61 27 65 12 55 -7 -4 -9 0 -6 12 3 11 11 39
17 64 6 25 13 53 16 63 8 26 -9 20 -43 -15z"/>
<path d="M756 3151 c-4 -6 -2 -19 4 -30 5 -11 10 -34 10 -51 0 -34 13 -33 32
3 10 20 10 21 -5 8 -15 -12 -17 -11 -18 5 -3 61 -11 85 -23 65z"/>
<path d="M471 3065 c-6 -42 -11 -89 -11 -105 0 -16 -5 -32 -10 -35 -6 -4 -7
-11 -4 -17 11 -17 24 14 25 62 0 25 6 68 13 95 l12 50 13 -40 c18 -54 22 -59
32 -44 12 20 11 29 -4 29 -8 0 -18 17 -23 37 -15 62 -30 50 -43 -32z"/>
<path d="M2480 3049 c-23 -13 -27 -17 -12 -13 22 5 23 4 12 -15 -6 -12 -35
-49 -65 -82 -58 -64 -65 -79 -40 -79 8 0 15 7 15 17 0 9 28 50 62 92 81 100
82 101 72 101 -5 -1 -25 -10 -44 -21z"/>
<path d="M2104 2906 c-294 -177 -339 -217 -412 -361 -39 -78 -59 -148 -68
-235 -6 -66 -8 -70 -32 -70 -14 0 -22 3 -19 7 4 3 1 13 -6 21 -10 13 -8 14 11
8 35 -12 26 7 -18 34 -42 26 -48 36 -28 42 7 3 6 7 -5 11 -9 3 -17 2 -17 -4 0
-6 -4 -7 -10 -4 -5 3 -10 1 -10 -5 0 -6 16 -20 35 -32 20 -11 34 -22 32 -24
-2 -3 -35 0 -73 6 -102 14 -115 13 -81 -8 15 -9 27 -21 27 -26 0 -5 8 -18 18
-29 17 -19 16 -19 -13 -14 -16 3 -50 9 -75 13 l-45 6 23 -24 c28 -31 28 -41 0
-32 -22 6 -22 6 -5 -13 24 -27 21 -34 -9 -23 -43 17 -56 13 -44 -11 11 -20 11
-20 -19 -5 -16 9 -37 16 -46 16 -14 0 -13 -3 2 -27 17 -26 17 -27 0 -20 -20 7
-21 3 -7 -24 14 -24 11 -24 -41 6 -51 29 -63 31 -55 10 6 -17 -9 -21 -19 -5
-3 6 -16 10 -28 9 -16 0 -10 -6 23 -22 25 -12 61 -34 80 -49 32 -25 33 -28 13
-28 -28 0 -29 -7 -6 -33 17 -20 17 -20 0 -14 -37 14 -67 19 -67 12 0 -3 11
-21 24 -38 14 -18 25 -36 25 -42 0 -5 4 -11 10 -13 18 -6 13 7 -16 45 l-27 36
24 -9 c14 -4 36 -9 50 -10 69 -4 115 -27 73 -36 -12 -2 6 -17 52 -43 48 -27
64 -41 52 -43 -11 -2 -16 -9 -13 -17 3 -8 -3 -15 -12 -17 -12 -2 -7 -10 21
-26 20 -13 37 -27 37 -30 0 -4 -36 -7 -79 -7 -44 0 -83 -3 -87 -7 -4 -5 0 -16
10 -27 16 -17 16 -19 -5 -24 -20 -5 -21 -8 -8 -23 12 -15 12 -16 -9 -10 -21 7
-20 3 14 -44 l37 -52 -41 21 c-23 12 -42 17 -42 11 0 -5 -7 -10 -16 -10 -14 0
-14 -3 -4 -15 19 -22 10 -25 -33 -10 -20 7 -58 16 -84 20 -39 6 -45 4 -40 -9
4 -9 2 -16 -3 -16 -6 0 -10 -10 -10 -21 0 -18 -2 -19 -15 -9 -21 17 -19 3 10
-69 14 -34 22 -67 18 -74 -4 -7 -6 -21 -4 -32 2 -18 -1 -17 -26 8 -32 30 -56
38 -30 9 9 -9 25 -60 36 -112 27 -123 27 -129 -4 -100 -31 29 -33 13 -5 -49
30 -64 25 -67 -32 -18 -29 24 -58 42 -65 40 -6 -2 -14 1 -18 6 -10 16 -25 13
-25 -5 0 -9 -23 11 -52 45 -28 34 -55 61 -59 61 -4 0 -9 -10 -11 -22 -2 -18
-10 -9 -36 40 -19 36 -31 70 -28 80 3 9 -8 1 -24 -18 -25 -29 -30 -31 -31 -15
-1 36 -7 54 -22 70 -12 11 -16 12 -20 2 -2 -6 -7 -10 -9 -7 -3 3 1 34 8 69 7
36 11 67 8 70 -3 3 -14 -1 -25 -8 -12 -7 -23 -11 -25 -9 -2 2 6 30 17 62 12
31 18 60 15 64 -4 3 -22 5 -41 4 -27 -2 -33 1 -29 13 5 12 -4 15 -50 15 -31 0
-56 3 -56 7 0 4 10 17 22 30 13 14 17 23 9 23 -11 0 -11 3 -1 16 12 13 10 14
-13 3 -21 -10 -24 -15 -16 -26 9 -10 8 -18 -5 -31 -22 -25 -20 -32 8 -32 l24
0 -5 -112 c-5 -109 -4 -117 30 -223 55 -172 68 -246 74 -420 8 -226 -17 -321
-97 -378 -66 -47 -67 -116 -2 -144 45 -20 210 -26 297 -12 96 16 124 28 141
61 21 40 28 154 16 253 l-10 80 33 31 c30 30 100 54 155 54 32 0 32 17 -1 40
l-30 22 27 29 c24 25 25 29 9 29 -14 0 -16 3 -8 11 19 19 31 1 49 -77 13 -60
15 -107 11 -227 -6 -187 -14 -216 -66 -245 -43 -24 -51 -38 -51 -87 0 -67 59
-91 246 -102 99 -6 104 -5 168 25 79 37 84 46 92 180 l7 97 102 -3 c106 -4
125 -1 262 50 l51 19 -5 78 -6 78 36 7 c20 4 40 13 44 21 9 16 73 30 73 17 0
-5 18 -30 41 -56 l41 -46 -22 -35 c-12 -19 -43 -47 -68 -62 -68 -38 -81 -52
-88 -90 -9 -47 11 -88 54 -110 30 -15 59 -18 154 -17 112 1 120 3 190 36 107
51 111 57 103 140 -7 69 -7 69 16 64 13 -3 52 -8 87 -11 57 -6 62 -5 62 14 0
18 8 20 68 23 65 3 66 3 34 15 -18 7 -30 8 -27 3 3 -5 -16 -10 -42 -12 -40 -2
-48 -6 -46 -21 1 -15 -4 -17 -20 -13 -12 4 -85 12 -162 17 -129 10 -146 14
-220 48 -138 65 -207 180 -163 276 14 30 14 30 73 4 42 -18 57 -20 124 -13 42
4 80 8 85 8 5 1 18 25 29 55 19 48 21 51 29 30 8 -21 12 -17 40 42 29 57 32
61 36 37 3 -28 16 -36 27 -18 13 20 25 9 20 -17 -5 -27 -5 -27 12 4 20 39 15
47 -22 33 -27 -10 -27 -10 -21 21 5 28 4 31 -14 26 -17 -4 -23 4 -39 56 -17
58 -18 105 -1 77 4 -7 15 2 29 25 12 21 20 40 17 43 -3 2 -10 -7 -17 -20 -7
-16 -19 -25 -33 -25 -21 -1 -24 7 -35 76 -6 42 -14 85 -17 96 -3 13 8 37 34
71 37 50 102 172 102 193 0 26 29 15 180 -65 89 -47 163 -84 166 -81 6 5 -24
31 -40 33 -17 2 -258 133 -274 148 -10 10 -11 27 -2 80 18 116 -19 355 -71
458 -36 70 -86 143 -125 181 -46 45 -57 42 -14 -4 80 -86 133 -187 165 -313
44 -175 42 -323 -6 -455 -20 -56 -92 -186 -108 -195 -5 -3 -14 18 -21 47 -19
82 -86 206 -142 264 -30 31 -76 63 -112 80 -55 25 -72 28 -171 28 -69 1 -119
6 -133 13 -27 16 -102 109 -102 128 0 8 8 14 18 15 10 0 6 5 -12 11 -20 7 -30
7 -35 -1 -4 -6 -35 -14 -69 -17 -71 -8 -80 -19 -22 -29 48 -8 44 -22 -8 -30
-61 -11 -63 -12 -52 -40 9 -23 7 -25 -18 -25 -49 1 -101 34 -142 91 -21 29
-36 57 -33 62 2 4 0 13 -5 20 -8 10 -1 12 30 9 38 -4 39 -3 29 17 -10 17 -9
21 4 21 19 0 19 9 -1 31 -17 19 -13 19 89 4 33 -5 38 19 6 35 -11 7 -18 14
-15 17 3 4 1 13 -6 20 -10 12 -6 14 28 8 65 -11 78 -16 64 -25 -23 -14 -1 -27
59 -34 62 -7 94 -26 44 -26 -15 0 -32 -4 -38 -8 -16 -12 -17 -42 -1 -42 8 0
17 8 20 18 3 10 4 7 3 -8 -1 -17 4 -26 16 -28 16 -3 17 -1 8 16 -17 33 -13 39
29 46 22 3 40 10 40 15 0 5 -18 12 -40 16 -24 4 -41 13 -41 21 -3 33 -3 42 5
103 16 134 97 288 198 374 54 46 429 279 437 271 2 -2 -2 -10 -9 -19 -7 -8
-10 -15 -7 -15 12 0 118 53 114 57 -3 2 -23 -5 -46 -17 -40 -20 -53 -16 -29 8
33 33 -15 8 -198 -102z m-404 -888 c19 -28 52 -64 73 -79 21 -15 34 -29 30
-32 -25 -15 -97 -16 -166 -3 -71 14 -130 35 -99 36 9 0 8 6 -3 24 -19 28 -17
29 53 46 65 15 73 27 25 36 l-38 8 30 7 c54 12 60 10 95 -43z m339 -125 c22
-14 23 -19 17 -84 -3 -37 -17 -99 -30 -136 -25 -68 -25 -99 0 -66 12 15 15 16
23 3 8 -12 13 -12 31 5 11 10 34 18 52 18 28 0 33 6 63 70 30 64 34 68 44 49
6 -11 11 -32 11 -46 0 -59 -141 -268 -250 -370 -53 -49 -61 -62 -33 -52 14 6
12 2 -5 -17 -12 -13 -22 -27 -22 -31 0 -5 -11 -17 -25 -28 -21 -17 -35 -48
-20 -48 4 0 58 25 148 68 4 2 4 -3 1 -12 -3 -9 -2 -16 2 -16 20 0 101 63 169
129 39 39 75 68 80 63 5 -4 5 -1 1 5 -7 12 33 93 45 93 12 0 16 -94 6 -115
-19 -39 -79 -105 -89 -99 -6 4 -8 2 -5 -3 8 -13 -153 -162 -175 -163 -5 0 -8
-5 -8 -11 0 -7 10 -9 26 -5 19 5 24 3 18 -5 -5 -9 3 -11 31 -6 29 5 35 3 27
-5 -20 -20 -13 -25 29 -22 43 3 94 32 159 90 41 37 41 37 59 -18 11 -32 10
-41 -9 -75 -12 -21 -19 -28 -17 -17 3 16 0 20 -12 17 -10 -3 -25 -27 -36 -58
-10 -30 -24 -56 -30 -59 -7 -2 -44 -8 -82 -11 -61 -6 -76 -4 -133 20 -171 70
-226 109 -266 187 -29 58 -30 63 -2 115 26 48 20 63 -16 39 -33 -21 -36 -20
-37 7 0 31 -37 137 -38 111 -1 -26 -19 -44 -37 -37 -8 3 -14 -1 -14 -8 0 -8
-12 -32 -26 -54 -14 -22 -23 -32 -20 -23 8 28 -19 11 -35 -22 -14 -28 -93
-100 -110 -100 -5 0 -13 10 -18 21 -7 21 -8 21 -29 -6 l-22 -28 0 32 c0 18 10
47 23 65 41 61 132 157 187 199 30 22 60 47 66 55 6 9 16 12 23 8 7 -4 10 -2
9 5 -2 7 11 22 29 33 18 12 32 24 33 27 0 11 -121 139 -142 150 -25 14 -35 4
-17 -17 8 -10 -17 -1 -59 20 -68 34 -94 54 -54 42 22 -7 47 8 38 23 -4 6 -2
11 5 11 7 0 2 9 -11 20 -13 11 -28 20 -33 20 -6 0 -8 3 -4 6 6 7 97 -42 212
-113 38 -24 73 -43 77 -43 16 0 7 26 -12 38 -11 7 -20 21 -20 31 0 11 -4 22
-9 25 -4 3 -7 17 -6 31 2 14 -1 23 -6 19 -5 -3 -9 0 -9 6 0 6 -4 9 -9 6 -4 -3
-15 2 -24 12 -15 16 -12 17 44 14 48 -3 58 -1 54 11 -5 11 9 17 57 25 75 12
134 7 167 -15z m-570 -243 c55 -24 101 -45 101 -49 0 -3 -15 -16 -33 -28 -17
-12 -50 -38 -73 -58 l-40 -35 4 30 c2 17 0 30 -6 30 -6 0 -13 -38 -17 -84 l-7
-85 -26 32 c-14 18 -41 49 -61 70 -19 20 -30 37 -23 37 18 0 15 13 -13 54 -13
20 -20 36 -14 36 6 0 8 9 4 20 -4 11 -3 20 2 19 4 -1 17 -1 27 0 18 1 17 4
-10 32 l-29 32 56 -6 c32 -3 99 -23 158 -47z m-1006 -71 c-5 -19 -3 -21 25
-17 22 3 29 1 23 -6 -5 -6 -30 -40 -56 -76 l-48 -65 7 64 c3 35 6 77 6 92 0
24 4 29 24 29 20 0 23 -4 19 -21z m644 -64 c12 -3 63 -49 114 -102 72 -76 88
-98 75 -103 -14 -5 -4 -22 53 -95 39 -50 71 -97 71 -105 -1 -20 -27 -53 -44
-56 -9 -1 -12 5 -9 17 4 12 0 19 -9 19 -8 0 -48 -50 -88 -112 l-73 -111 -67
69 -66 70 -29 132 c-16 72 -26 135 -22 138 4 4 13 1 22 -6 18 -15 19 -3 5 34
-7 21 -6 26 5 26 15 0 11 16 -30 114 -6 14 -5 17 3 12 8 -5 12 1 12 18 0 14 5
26 10 26 6 0 10 7 10 16 0 10 6 14 18 10 9 -2 27 -7 39 -11z m-562 -135 c-20
-89 -19 -90 14 -86 28 3 29 1 35 -45 4 -27 11 -49 16 -49 6 0 10 6 10 13 0 7
6 22 14 33 14 19 15 19 22 -1 4 -11 22 -44 41 -73 l33 -53 -55 -82 c-30 -45
-65 -95 -78 -111 l-24 -30 -28 49 c-16 26 -32 66 -36 89 -4 23 -15 77 -24 121
l-18 80 36 78 c20 43 36 82 35 85 -3 10 13 54 17 50 2 -2 -3 -32 -10 -68z
m1268 -137 c-30 -42 -116 -213 -111 -219 3 -2 11 2 18 11 27 32 28 12 3 -45
-14 -33 -23 -63 -20 -66 3 -3 44 9 92 25 48 17 89 31 92 31 3 0 -24 -27 -61
-61 -66 -61 -81 -83 -48 -73 9 3 1 -8 -18 -26 -27 -23 -32 -33 -21 -39 9 -6
10 -11 2 -15 -17 -11 -13 -26 7 -27 9 0 -5 -8 -33 -18 -69 -25 -166 -75 -192
-100 -18 -17 -22 -18 -27 -5 -3 9 -6 32 -6 52 0 20 -8 79 -17 130 -15 79 -21
92 -35 88 -11 -2 -18 1 -18 10 0 11 -4 12 -19 4 -42 -22 -43 -8 -2 34 41 42
43 47 39 90 -3 25 -2 43 2 41 5 -3 36 25 70 62 54 59 62 64 57 41 -2 -16 -2
-28 0 -28 3 0 30 26 60 58 30 31 52 49 49 40 -6 -21 4 -23 23 -5 11 10 13 9 8
-5 -9 -24 -1 -22 63 16 30 18 57 32 59 30 2 -1 -6 -15 -16 -31z m-1058 -82 c3
-5 1 -12 -5 -16 -5 -3 -10 1 -10 9 0 18 6 21 15 7z m283 -132 c17 -71 15 -86
-10 -104 -18 -12 -20 -18 -10 -24 10 -6 10 -10 -3 -21 -22 -18 -19 -36 11 -59
l27 -21 -31 0 c-17 0 -43 -5 -58 -10 -25 -10 -26 -9 -13 7 12 15 12 16 -1 8
-8 -4 -33 -23 -56 -41 l-41 -33 -6 121 c-11 200 -11 207 15 200 14 -3 19 -1
14 6 -16 26 47 2 99 -38 30 -23 58 -40 61 -38 3 3 -4 28 -14 56 -13 33 -15 49
-7 46 6 -3 17 -28 23 -55z m-273 -136 c-2 -10 -6 -42 -9 -71 -4 -44 -3 -53 9
-48 11 4 13 -1 8 -24 -8 -41 9 -38 34 6 l21 37 5 -29 c10 -53 20 -208 18 -279
-3 -120 -15 -133 -136 -155 -85 -16 -119 -11 -123 19 -6 40 7 68 40 90 21 13
27 21 17 21 -9 0 -31 -13 -48 -29 -25 -23 -31 -37 -31 -69 l0 -40 -46 -4 c-53
-4 -70 6 -79 43 -5 21 0 34 26 63 41 47 33 56 -11 11 -24 -25 -34 -44 -34 -68
-1 -30 -4 -34 -21 -27 -14 5 -21 18 -23 43 -3 32 3 42 51 89 59 57 87 122 87
202 0 62 14 74 29 26 12 -41 46 -86 55 -72 10 17 46 83 86 157 67 125 82 147
75 108z m472 -18 c0 -8 -4 -12 -9 -9 -5 3 -6 10 -3 15 9 13 12 11 12 -6z m206
-150 c-8 -33 -16 -80 -19 -105 l-5 -44 24 22 c13 12 27 22 32 22 13 0 -2 -306
-17 -338 -17 -35 -102 -81 -150 -82 l-38 0 0 44 c0 29 7 52 21 70 11 14 16 26
10 26 -22 0 -51 -53 -51 -96 l0 -44 -52 0 c-76 0 -95 8 -107 41 -12 36 0 76
32 101 12 10 16 18 9 18 -7 0 -24 -11 -38 -26 -22 -21 -25 -32 -22 -70 3 -39
1 -44 -18 -44 -38 0 -59 25 -59 71 0 30 6 45 19 53 58 34 74 56 85 118 7 35
15 110 19 168 l7 105 36 -90 c21 -54 41 -90 50 -90 8 0 23 13 34 30 29 45 99
162 135 227 18 31 40 58 49 60 24 5 31 -72 14 -147z m587 60 c8 -9 8 -15 2
-15 -18 0 -42 12 -42 21 0 14 26 10 40 -6z m117 -164 c-1 -16 -6 -29 -12 -28
-5 1 -9 -7 -10 -17 0 -17 7 -20 53 -20 35 -1 56 -6 62 -16 8 -12 10 -11 10 5
0 11 4 16 8 10 4 -5 13 -10 20 -11 28 -2 33 -4 28 -12 -3 -5 9 -6 27 -4 26 4
30 3 21 -9 -14 -17 -24 -79 -13 -79 4 0 11 5 14 10 3 6 11 10 17 10 6 0 5 -7
-3 -17 -12 -14 -12 -15 0 -9 8 5 16 4 20 -3 5 -7 14 -5 29 9 12 12 22 16 22
11 0 -15 -72 -59 -136 -83 -69 -26 -100 -16 -109 36 -10 53 -3 69 40 91 52 26
49 24 42 31 -9 10 -66 -16 -88 -40 -21 -21 -25 -70 -10 -109 9 -24 8 -25 -36
-32 -54 -8 -79 10 -89 61 -10 53 2 83 41 101 30 14 47 33 29 33 -11 0 -50 -23
-71 -43 -25 -22 -30 -67 -13 -111 8 -23 7 -26 -10 -26 -29 0 -60 36 -60 69 0
53 17 80 65 102 25 12 48 26 51 31 3 5 11 5 19 -2 9 -8 12 -6 12 7 0 16 24 83
30 83 1 0 1 -13 0 -29z m48 -1 c3 -6 -1 -7 -9 -4 -18 7 -21 14 -7 14 6 0 13
-4 16 -10z m-651 -56 c3 -8 2 -12 -4 -9 -6 3 -10 10 -10 16 0 14 7 11 14 -7z"/>
<path d="M2213 535 c0 -8 4 -12 9 -9 4 3 8 9 8 15 0 5 -4 9 -8 9 -5 0 -9 -7
-9 -15z"/>
<path d="M2383 3002 c-18 -9 -33 -21 -33 -25 0 -9 24 3 55 27 26 20 18 19 -22
-2z"/>
<path d="M2414 2873 c3 -4 -8 -22 -26 -40 -37 -38 -32 -40 40 -13 80 30 92 25
42 -17 -42 -37 -43 -38 -19 -44 l24 -6 -25 -10 c-25 -10 -25 -10 15 -31 54
-28 169 -124 236 -197 111 -122 206 -277 250 -410 15 -44 25 -62 27 -49 3 18
10 21 42 20 37 -1 38 -2 23 -18 -9 -10 -14 -20 -12 -22 2 -1 51 -10 109 -19
58 -9 113 -19 123 -23 9 -3 17 -2 17 4 0 10 -10 12 -142 33 -79 12 -92 20 -61
38 14 8 11 10 -17 15 -19 3 -48 7 -64 8 -25 3 -31 10 -51 63 -72 191 -262 430
-433 543 l-53 36 23 18 23 18 -25 0 c-23 1 -20 5 30 51 30 28 46 48 36 45 -11
-4 -40 -11 -65 -17 -25 -5 -55 -12 -66 -16 -19 -5 -19 -5 -2 14 20 23 22 33 5
33 -6 0 -8 -3 -4 -7z"/>
<path d="M2320 2515 c13 -14 26 -23 28 -20 7 7 -29 45 -41 45 -6 0 0 -11 13
-25z"/>
<path d="M220 2480 c-11 -7 -8 -10 13 -10 44 0 31 -23 -36 -60 -61 -34 -61
-35 -32 -40 44 -8 42 -28 -12 -82 l-47 -48 34 1 c19 1 60 5 90 9 47 8 44 8
-25 4 l-80 -5 55 50 c30 28 49 51 41 51 -11 0 -11 3 -1 15 11 13 8 15 -21 15
l-34 1 50 26 c68 35 113 83 66 70 -10 -2 -25 -1 -33 4 -7 4 -20 4 -28 -1z"/>
<path d="M1481 2428 l-34 -9 26 -27 c25 -25 28 -25 44 -9 20 19 10 35 -11 18
-9 -7 -17 -8 -20 -2 -3 5 7 12 24 16 16 4 30 11 30 16 0 11 -14 10 -59 -3z"/>
<path d="M700 2405 c-18 -22 -2 -54 37 -73 33 -16 36 -15 71 3 42 23 53 52 26
72 -25 18 -118 17 -134 -2z m75 -5 c3 -5 -3 -10 -15 -10 -12 0 -18 5 -15 10 3
6 10 10 15 10 5 0 12 -4 15 -10z"/>
<path d="M1007 2304 c-73 -70 -88 -74 -174 -52 -35 8 -60 8 -109 -1 -59 -12
-66 -12 -110 10 -26 13 -62 42 -80 63 -19 22 -34 35 -34 29 0 -6 -3 -20 -6
-30 -5 -14 -4 -15 5 -7 10 9 18 6 36 -10 12 -11 43 -40 67 -63 42 -39 46 -41
62 -25 26 26 196 24 225 -2 21 -19 21 -19 49 6 137 128 140 130 151 111 9 -15
10 -16 11 -2 0 9 -6 21 -12 27 -10 7 -31 -7 -81 -54z m-77 -78 c0 -3 -4 -8
-10 -11 -5 -3 -10 -1 -10 4 0 6 5 11 10 11 6 0 10 -2 10 -4z"/>
<path d="M300 2260 c12 -7 12 -12 -4 -29 -19 -21 -19 -21 12 -21 l31 0 -25
-56 c-13 -31 -20 -54 -14 -52 7 2 11 7 11 11 0 3 9 26 19 49 25 56 25 71 0 63
-24 -8 -26 2 -3 27 15 17 15 18 -13 18 -22 0 -25 -3 -14 -10z"/>
<path d="M596 2202 c10 -19 30 -42 44 -52 40 -29 137 -53 182 -46 45 7 98 32
98 45 0 5 -17 0 -37 -10 -80 -41 -194 -19 -262 51 -42 42 -43 43 -25 12z"/>
<path d="M348 2133 c-10 -2 -18 -9 -18 -14 0 -13 14 -11 28 3 9 9 12 5 12 -20
0 -35 14 -41 46 -17 29 22 42 18 47 -12 3 -23 4 -21 6 10 0 20 -1 37 -4 37 -3
0 -24 -9 -46 -21 l-41 -20 7 30 c7 32 3 35 -37 24z"/>
<path d="M1644 2115 c-10 -8 -14 -15 -7 -15 19 0 43 11 43 21 0 13 -14 11 -36
-6z"/>
<path d="M473 2045 c-7 -8 -13 -20 -13 -27 0 -9 3 -9 10 2 8 12 10 11 10 -7 0
-17 -18 -35 -70 -69 -38 -26 -70 -51 -70 -56 0 -5 15 2 33 15 17 13 45 33 61
43 l29 18 -7 -37 c-7 -38 1 -46 22 -25 9 9 12 1 12 -37 l1 -50 44 50 c44 48
45 49 45 21 0 -15 4 -26 8 -24 16 6 84 88 74 88 -6 0 -20 -13 -32 -30 -19 -26
-50 -45 -36 -21 4 5 3 17 -1 27 -5 15 -13 9 -49 -31 l-42 -49 5 47 c6 48 -2
57 -26 35 -11 -11 -12 -8 -7 16 16 65 23 116 17 116 -3 -1 -12 -7 -18 -15z"/>
<path d="M3188 1967 c-26 -12 -48 -24 -48 -28 0 -3 43 -14 96 -24 94 -18 101
-26 34 -40 -19 -4 -66 -16 -104 -27 l-69 -20 34 -16 34 -17 -55 -5 c-32 -3
-53 -9 -50 -15 3 -5 12 -8 20 -7 8 2 32 6 53 9 39 5 44 12 26 30 -20 20 -1 30
106 53 58 13 105 27 105 31 0 4 -17 10 -37 13 -21 4 -64 14 -96 23 l-58 16 38
23 c47 29 33 29 -29 1z"/>
<path d="M327 1833 c-36 -37 -65 -69 -63 -70 1 -1 33 27 71 62 38 36 66 67 63
70 -3 3 -35 -25 -71 -62z"/>
<path d="M1120 1886 c0 -8 -6 -17 -12 -20 -7 -3 -4 -5 6 -3 19 2 33 37 15 37
-5 0 -9 -6 -9 -14z"/>
<path d="M315 1779 c-15 -7 -12 -8 13 -3 l32 6 -50 -73 c-27 -40 -46 -76 -43
-79 3 -3 8 0 10 7 2 7 12 9 21 6 14 -4 14 -3 3 5 -11 8 -5 22 33 76 44 62 45
66 24 65 -13 0 -32 -5 -43 -10z"/>
<path d="M3061 1748 l-25 -9 32 -19 c18 -11 32 -22 32 -25 0 -3 -65 -3 -144 1
-108 5 -145 4 -151 -5 -4 -7 -2 -18 4 -24 15 -15 14 -27 -4 -27 -16 0 -21 -16
-7 -23 4 -3 18 -1 31 4 22 9 22 10 7 34 l-16 25 162 2 163 3 -38 26 c-24 17
-34 29 -25 32 7 2 11 7 8 9 -3 3 -16 2 -29 -4z"/>
<path d="M2989 1534 c-51 -37 -109 -78 -128 -92 -33 -26 -34 -26 -27 -4 5 14
3 22 -4 22 -8 0 -8 6 0 21 26 48 -2 31 -102 -63 -60 -55 -108 -95 -108 -88 0
7 -8 9 -21 5 -21 -7 -21 -5 -14 56 l6 64 -25 -30 c-14 -16 -33 -45 -43 -62
-18 -34 -37 -46 -26 -17 4 12 2 15 -8 12 -14 -5 -15 -46 -1 -60 4 -4 25 21 45
57 21 36 39 65 41 65 2 0 2 -27 -1 -60 -4 -41 -2 -60 6 -60 6 0 11 5 11 10 0
6 5 10 10 10 6 0 10 -6 10 -12 0 -7 44 29 97 80 88 83 98 90 105 71 4 -11 5
-32 1 -47 l-6 -25 46 34 c147 109 202 147 206 144 2 -3 -15 -40 -38 -84 -44
-84 -54 -117 -20 -63 12 17 25 32 31 32 5 0 7 4 3 10 -3 5 8 37 25 71 17 33
29 63 27 65 -2 2 -46 -26 -98 -62z"/>
<path d="M3049 1478 c0 -2 -2 -10 -4 -18 -1 -8 -17 -39 -34 -69 l-32 -54 40 6
39 5 -44 -58 c-39 -51 -174 -304 -174 -325 0 -5 8 -1 18 8 10 9 35 23 56 32
43 18 42 14 -13 -53 -23 -29 -31 -46 -23 -51 7 -4 -11 -24 -47 -51 -91 -70
-192 -168 -180 -176 8 -4 7 -9 -2 -15 -12 -8 -11 -11 1 -19 8 -5 20 -10 25
-10 6 0 3 4 -5 10 -12 7 -12 10 4 16 17 6 17 8 3 19 -13 10 -7 19 46 66 34 30
93 79 130 109 45 35 64 56 56 60 -8 6 1 25 30 66 22 31 39 59 38 61 -2 2 -23
-4 -47 -12 -24 -8 -45 -13 -48 -11 -13 13 121 252 170 302 32 34 26 49 -17 38
-14 -3 -25 -3 -25 0 0 9 36 76 56 104 15 20 15 22 0 22 -9 0 -16 -1 -17 -2z"/>
</g>
</svg>
